<svg id="visual" viewBox="0 0 960 300" width="960" height="300" xmlns="http://www.w3.org/2000/svg" xmlns:xlink="http://www.w3.org/1999/xlink" version="1.1"><rect x="0" y="0" width="960" height="300" fill="#fff"></rect><path d="M0 196L192 200L384 208L576 219L768 211L960 211L960 301L768 301L576 301L384 301L192 301L0 301Z" fill="#ffffff"></path><path d="M0 217L192 225L384 215L576 229L768 217L960 214L960 301L768 301L576 301L384 301L192 301L0 301Z" fill="#f7faff"></path><path d="M0 244L192 232L384 247L576 246L768 234L960 230L960 301L768 301L576 301L384 301L192 301L0 301Z" fill="#f0f5ff"></path><path d="M0 262L192 259L384 254L576 251L768 255L960 260L960 301L768 301L576 301L384 301L192 301L0 301Z" fill="#e8f0ff"></path><path d="M0 267L192 265L384 265L576 277L768 274L960 267L960 301L768 301L576 301L384 301L192 301L0 301Z" fill="#e0ebff"></path><path d="M0 276L192 283L384 287L576 284L768 285L960 282L960 301L768 301L576 301L384 301L192 301L0 301Z" fill="#d8e6ff"></path></svg>