<svg id="visual" viewBox="0 0 960 300" width="960" height="300" xmlns="http://www.w3.org/2000/svg" xmlns:xlink="http://www.w3.org/1999/xlink" version="1.1"><rect x="0" y="0" width="960" height="300" fill="#fff"></rect><path d="M0 71L192 99L384 86L576 82L768 75L960 83L960 0L768 0L576 0L384 0L192 0L0 0Z" fill="#ffffff"></path><path d="M0 57L192 69L384 83L576 79L768 59L960 67L960 0L768 0L576 0L384 0L192 0L0 0Z" fill="#f7faff"></path><path d="M0 44L192 55L384 66L576 67L768 59L960 55L960 0L768 0L576 0L384 0L192 0L0 0Z" fill="#f0f5ff"></path><path d="M0 44L192 53L384 53L576 54L768 35L960 37L960 0L768 0L576 0L384 0L192 0L0 0Z" fill="#e8f0ff"></path><path d="M0 28L192 20L384 30L576 34L768 27L960 27L960 0L768 0L576 0L384 0L192 0L0 0Z" fill="#e0ebff"></path><path d="M0 24L192 11L384 15L576 14L768 23L960 13L960 0L768 0L576 0L384 0L192 0L0 0Z" fill="#d8e6ff"></path></svg>